<?xml version="1.0" standalone="no"?>
<!DOCTYPE svg PUBLIC "-//W3C//DTD SVG 20010904//EN"
 "http://www.w3.org/TR/2001/REC-SVG-20010904/DTD/svg10.dtd">
<svg version="1.0" xmlns="http://www.w3.org/2000/svg"
 width="700.000000pt" height="700.000000pt" viewBox="0 0 700.000000 700.000000"
 preserveAspectRatio="xMidYMid meet">
<metadata>
Created by potrace 1.14, written by Peter Selinger 2001-2017
</metadata>
<g transform="translate(0.000000,700.000000) scale(0.100000,-0.100000)"
fill="#000000" stroke="none">
<path d="M3298 6985 c-2 -2 -43 -6 -92 -10 -50 -4 -97 -8 -106 -10 -9 -2 -41
-6 -71 -9 -47 -5 -148 -22 -244 -41 -382 -76 -805 -246 -1140 -459 -71 -45
-214 -142 -240 -163 -6 -4 -55 -44 -110 -87 -126 -100 -397 -370 -502 -501
-78 -97 -233 -310 -233 -320 0 -2 -17 -31 -37 -62 -60 -92 -145 -257 -233
-448 -72 -157 -194 -552 -215 -700 -4 -22 -8 -47 -10 -55 -3 -8 -7 -35 -10
-60 -3 -25 -8 -57 -10 -72 -24 -140 -30 -239 -29 -493 0 -224 3 -296 19 -415
72 -555 245 -1029 542 -1490 47 -72 126 -183 143 -200 3 -3 27 -34 55 -70 76
-99 97 -123 265 -290 85 -86 189 -183 230 -215 41 -33 77 -62 80 -65 21 -21
236 -172 292 -205 10 -5 58 -34 107 -63 121 -71 300 -159 436 -215 235 -97
609 -196 840 -223 33 -4 71 -8 85 -10 189 -25 581 -25 790 1 41 5 126 18 205
31 360 59 813 222 1108 397 43 26 81 47 83 47 3 0 53 32 112 72 155 103 244
172 410 313 47 40 219 213 284 285 310 349 558 775 704 1217 34 104 97 336
107 398 3 17 12 68 20 115 25 137 33 208 43 364 12 189 7 455 -11 596 -2 19
-7 58 -10 85 -3 28 -17 112 -31 189 -87 474 -282 942 -559 1341 -431 621
-1050 1085 -1761 1323 -84 28 -225 69 -262 77 -9 1 -35 8 -57 14 -22 5 -55 13
-74 16 -19 3 -37 7 -40 9 -3 2 -31 7 -61 11 -30 4 -57 8 -60 10 -3 1 -32 6
-65 9 -33 4 -71 9 -85 11 -81 12 -190 18 -382 20 -120 1 -219 1 -220 0z m502
-579 c19 -3 55 -8 80 -11 309 -39 602 -127 899 -272 412 -201 778 -501 1040
-853 31 -41 58 -77 61 -80 10 -9 98 -146 145 -226 87 -147 245 -501 245 -550
0 -8 4 -22 10 -32 24 -43 90 -320 105 -447 2 -16 6 -46 9 -65 31 -215 26 -584
-10 -810 -3 -19 -7 -51 -10 -70 -14 -107 -86 -365 -150 -538 -222 -594 -703
-1160 -1254 -1476 -253 -145 -580 -273 -835 -327 -33 -7 -62 -13 -65 -14 -3 0
-26 -4 -51 -8 -25 -4 -58 -10 -72 -13 -156 -28 -529 -39 -722 -22 -76 7 -242
31 -295 43 -14 3 -45 10 -70 15 -25 5 -54 11 -66 14 -162 34 -478 155 -669
257 -140 74 -338 203 -445 291 -356 293 -605 600 -800 988 -108 215 -220 551
-254 760 -3 19 -8 46 -10 60 -5 32 -18 119 -21 145 -8 61 -18 252 -18 330 0
92 12 325 18 335 1 3 6 34 9 69 19 184 94 468 181 686 53 133 172 374 201 406
8 8 14 19 14 23 0 21 197 295 289 401 79 91 283 286 381 364 213 170 380 270
675 406 103 48 336 124 485 159 139 32 272 53 391 62 46 4 86 8 88 10 6 6 449
-4 491 -10z"/>
<path d="M3299 6156 c-2 -2 -39 -7 -81 -10 -43 -3 -83 -8 -90 -11 -7 -2 -31
-6 -53 -9 -174 -21 -425 -94 -626 -179 -362 -155 -676 -381 -939 -677 -41 -46
-85 -96 -97 -110 -13 -13 -23 -28 -23 -31 0 -3 -9 -17 -21 -30 -48 -55 -178
-262 -240 -384 -139 -273 -236 -579 -265 -830 -3 -33 -8 -63 -10 -66 -6 -11
-17 -209 -18 -309 0 -130 11 -275 29 -395 21 -143 25 -166 35 -200 5 -16 11
-42 14 -56 9 -54 67 -236 112 -347 87 -221 262 -523 389 -672 26 -30 61 -71
77 -90 191 -226 474 -450 759 -602 191 -102 479 -209 654 -244 11 -2 31 -6 45
-9 42 -9 136 -25 180 -31 225 -31 622 -25 815 12 11 2 34 7 50 9 17 3 76 17
132 30 520 124 1009 420 1372 830 62 70 215 276 247 333 15 26 33 54 39 62 7
8 39 67 72 130 161 311 260 649 290 995 13 147 5 556 -11 585 -2 3 -7 30 -10
60 -31 258 -158 626 -309 895 -68 120 -217 340 -251 370 -6 6 -29 32 -51 60
-61 76 -234 246 -327 320 -46 36 -92 73 -103 82 -11 9 -73 52 -139 95 -148 97
-379 212 -547 272 -154 55 -411 119 -529 131 -30 4 -82 10 -114 14 -57 8 -450
13 -457 7z m261 -1241 c169 -15 374 -69 533 -141 43 -20 83 -32 87 -28 4 5 25
34 46 64 l39 55 120 -1 c66 -1 125 -2 131 -3 9 -1 32 -65 49 -139 10 -41 181
-675 205 -759 l18 -62 -32 -10 c-17 -5 -67 -19 -111 -31 -44 -12 -99 -28 -122
-36 -24 -7 -57 -16 -75 -19 -17 -3 -35 -8 -39 -10 -4 -3 -10 7 -13 21 -4 14
-23 60 -42 102 -95 207 -261 382 -440 467 -132 62 -326 87 -460 59 -206 -43
-383 -196 -475 -413 -44 -102 -51 -97 116 -96 l145 0 0 -158 0 -158 -167 2
c-156 2 -167 1 -173 -17 -4 -10 -6 -30 -4 -44 1 -14 5 -54 9 -90 l6 -65 165 3
165 2 -3 -157 -3 -158 -115 -1 c-136 -1 -136 0 -68 -115 87 -147 243 -274 408
-335 65 -23 92 -27 210 -30 135 -3 185 4 295 41 202 68 415 232 562 432 l46
62 100 -77 c55 -42 111 -86 126 -96 14 -11 40 -32 58 -47 l31 -27 -36 -59
c-45 -72 -36 -59 -130 -173 -169 -204 -397 -364 -666 -467 -99 -37 -256 -80
-329 -88 -25 -3 -56 -8 -68 -11 -35 -7 -241 -6 -296 1 -75 10 -84 12 -154 29
-142 33 -318 115 -474 221 -250 169 -420 386 -521 663 -13 36 -28 68 -33 71
-5 3 -74 5 -154 5 l-145 -2 -62 147 c-34 80 -65 151 -67 158 -4 10 35 13 173
12 99 0 186 0 194 0 13 1 16 18 15 106 0 105 0 105 -25 106 -14 1 -120 0 -236
0 -160 -1 -214 2 -221 11 -17 22 -124 282 -121 293 2 6 119 10 326 10 l323 0
34 102 c68 204 158 349 309 498 237 235 522 366 831 382 61 3 112 7 114 9 2 2
7 2 10 0 3 -2 40 -7 81 -11z"/>
</g>
</svg>
